<?xml version="1.0" encoding="iso-8859-1"?>
<!-- Generator: Adobe Illustrator 16.0.0, SVG Export Plug-In . SVG Version: 6.00 Build 0)  -->
<!DOCTYPE svg PUBLIC "-//W3C//DTD SVG 1.1//EN" "http://www.w3.org/Graphics/SVG/1.1/DTD/svg11.dtd">
<svg version="1.1" id="Capa_1" xmlns="http://www.w3.org/2000/svg" xmlns:xlink="http://www.w3.org/1999/xlink" x="0px" y="0px"
	 width="45.64px" height="45.641px" viewBox="0 0 45.64 45.641" style="enable-background:new 0 0 45.64 45.641;"
	 xml:space="preserve">
<g>
	<path d="M43.183,37.582L31.209,15.429V2.232C31.209,0.99,30.17,0,28.929,0H16.707c-1.242,0-2.264,0.99-2.264,2.232v13.197
		L2.459,37.582c-0.914,1.689-0.868,3.74,0.115,5.391c0.983,1.649,2.766,2.668,4.686,2.668h31.115c1.92,0,3.707-1.019,4.69-2.668
		C44.047,41.322,44.097,39.271,43.183,37.582z M24.797,28.314c1.073,0,1.942,0.869,1.942,1.942c0,1.072-0.871,1.942-1.942,1.942
		c-1.072,0-1.942-0.87-1.942-1.942C22.855,29.186,23.724,28.314,24.797,28.314z M19.336,16.637c1.073,0,1.942,0.87,1.942,1.943
		c0,1.072-0.869,1.942-1.942,1.942c-1.073,0-1.942-0.87-1.942-1.942C17.395,17.507,18.263,16.637,19.336,16.637z M19.336,23.417
		c1.738,0,3.148,1.41,3.148,3.147c0,1.738-1.41,3.147-3.148,3.147c-1.739,0-3.148-1.409-3.148-3.147S17.597,23.417,19.336,23.417z
		 M37.414,39.562c-0.404,0.688-1.143,1.094-1.938,1.094H10.159c-0.796,0-1.534-0.406-1.938-1.094
		c-0.404-0.688-0.415-1.528-0.028-2.226l3.043-5.47c0.434-0.782,1.29-1.23,2.18-1.145c4.041,0.385,8.583,3.842,12.642,3.688
		c2.174-0.083,4.192-0.875,6.114-1.934c1.085-0.6,2.45-0.207,3.052,0.877l2.219,3.982C37.828,38.033,37.818,38.875,37.414,39.562z"
		fill="white" />
</g>
</svg>
